<svg width="24" height="24" viewBox="0 0 24 24" fill="none" xmlns="http://www.w3.org/2000/svg">
<g id="Icon/Fill/keypad">
<path id="Mask" fill-rule="evenodd" clip-rule="evenodd" d="M5 1.99988C3.346 1.99988 2 3.34588 2 4.99988C2 6.65388 3.346 7.99988 5 7.99988C6.654 7.99988 8 6.65388 8 4.99988C8 3.34588 6.654 1.99988 5 1.99988ZM12 1.99988C10.346 1.99988 9 3.34588 9 4.99988C9 6.65388 10.346 7.99988 12 7.99988C13.654 7.99988 15 6.65388 15 4.99988C15 3.34588 13.654 1.99988 12 1.99988ZM22 4.99988C22 6.65388 20.654 7.99988 19 7.99988C17.346 7.99988 16 6.65388 16 4.99988C16 3.34588 17.346 1.99988 19 1.99988C20.654 1.99988 22 3.34588 22 4.99988ZM5 8.99988C3.346 8.99988 2 10.3459 2 11.9999C2 13.6539 3.346 14.9999 5 14.9999C6.654 14.9999 8 13.6539 8 11.9999C8 10.3459 6.654 8.99988 5 8.99988ZM9 11.9999C9 10.3459 10.346 8.99988 12 8.99988C13.654 8.99988 15 10.3459 15 11.9999C15 13.6539 13.654 14.9999 12 14.9999C10.346 14.9999 9 13.6539 9 11.9999ZM19 8.99988C17.346 8.99988 16 10.3459 16 11.9999C16 13.6539 17.346 14.9999 19 14.9999C20.654 14.9999 22 13.6539 22 11.9999C22 10.3459 20.654 8.99988 19 8.99988ZM2 18.9999C2 17.3459 3.346 15.9999 5 15.9999C6.654 15.9999 8 17.3459 8 18.9999C8 20.6539 6.654 21.9999 5 21.9999C3.346 21.9999 2 20.6539 2 18.9999ZM12 15.9999C10.346 15.9999 9 17.3459 9 18.9999C9 20.6539 10.346 21.9999 12 21.9999C13.654 21.9999 15 20.6539 15 18.9999C15 17.3459 13.654 15.9999 12 15.9999ZM16 18.9999C16 17.3459 17.346 15.9999 19 15.9999C20.654 15.9999 22 17.3459 22 18.9999C22 20.6539 20.654 21.9999 19 21.9999C17.346 21.9999 16 20.6539 16 18.9999Z" fill="#231F20"/>
<mask id="mask0" mask-type="alpha" maskUnits="userSpaceOnUse" x="2" y="1" width="20" height="21">
<path id="Mask_2" fill-rule="evenodd" clip-rule="evenodd" d="M5 1.99988C3.346 1.99988 2 3.34588 2 4.99988C2 6.65388 3.346 7.99988 5 7.99988C6.654 7.99988 8 6.65388 8 4.99988C8 3.34588 6.654 1.99988 5 1.99988ZM12 1.99988C10.346 1.99988 9 3.34588 9 4.99988C9 6.65388 10.346 7.99988 12 7.99988C13.654 7.99988 15 6.65388 15 4.99988C15 3.34588 13.654 1.99988 12 1.99988ZM22 4.99988C22 6.65388 20.654 7.99988 19 7.99988C17.346 7.99988 16 6.65388 16 4.99988C16 3.34588 17.346 1.99988 19 1.99988C20.654 1.99988 22 3.34588 22 4.99988ZM5 8.99988C3.346 8.99988 2 10.3459 2 11.9999C2 13.6539 3.346 14.9999 5 14.9999C6.654 14.9999 8 13.6539 8 11.9999C8 10.3459 6.654 8.99988 5 8.99988ZM9 11.9999C9 10.3459 10.346 8.99988 12 8.99988C13.654 8.99988 15 10.3459 15 11.9999C15 13.6539 13.654 14.9999 12 14.9999C10.346 14.9999 9 13.6539 9 11.9999ZM19 8.99988C17.346 8.99988 16 10.3459 16 11.9999C16 13.6539 17.346 14.9999 19 14.9999C20.654 14.9999 22 13.6539 22 11.9999C22 10.3459 20.654 8.99988 19 8.99988ZM2 18.9999C2 17.3459 3.346 15.9999 5 15.9999C6.654 15.9999 8 17.3459 8 18.9999C8 20.6539 6.654 21.9999 5 21.9999C3.346 21.9999 2 20.6539 2 18.9999ZM12 15.9999C10.346 15.9999 9 17.3459 9 18.9999C9 20.6539 10.346 21.9999 12 21.9999C13.654 21.9999 15 20.6539 15 18.9999C15 17.3459 13.654 15.9999 12 15.9999ZM16 18.9999C16 17.3459 17.346 15.9999 19 15.9999C20.654 15.9999 22 17.3459 22 18.9999C22 20.6539 20.654 21.9999 19 21.9999C17.346 21.9999 16 20.6539 16 18.9999Z" fill="white"/>
</mask>
<g mask="url(#mask0)">
<g id="&#240;&#159;&#142;&#168; Color">
<rect id="Base" width="24" height="24" fill="#C4C4C4"/>
</g>
</g>
</g>
</svg>
